<mxfile host="app.diagrams.net" modified="2022-12-05T14:08:48.262Z" agent="5.0 (Windows NT 10.0; Win64; x64) AppleWebKit/537.36 (KHTML, like Gecko) Chrome/103.0.0.0 Safari/537.36" version="20.6.0" etag="-YndGi2OYqmnB02hhlgp" type="github">
  <diagram id="gnfm8oP3K_fZrDHpjWiT" name="PÃ¡gina-1">
    <mxGraphModel dx="1000" dy="1708" grid="1" gridSize="10" guides="1" tooltips="1" connect="1" arrows="1" fold="1" page="1" pageScale="1" pageWidth="827" pageHeight="1169" math="0" shadow="0">
      <root>
        <mxCell id="0" />
        <mxCell id="1" parent="0" />
        <mxCell id="sF3ESEcGX4IARb9JVjHP-1" value="&lt;h4&gt;&lt;b&gt;&lt;font color=&quot;#a08cab&quot; face=&quot;Times New Roman&quot; style=&quot;font-size: 21px;&quot;&gt;Exerc 1&lt;/font&gt;&lt;/b&gt;&lt;/h4&gt;" style="text;html=1;strokeColor=none;fillColor=none;align=center;verticalAlign=middle;whiteSpace=wrap;rounded=0;" vertex="1" parent="1">
          <mxGeometry y="-1150" width="110" height="30" as="geometry" />
        </mxCell>
      </root>
    </mxGraphModel>
  </diagram>
</mxfile>
